<svg xmlns="http://www.w3.org/2000/svg" viewBox="0 0 100 100">
  <defs>
    <radialGradient id="bg" cx="35%" cy="30%" r="90%">
      <stop offset="0%" stop-color="#2c2f63" />
      <stop offset="100%" stop-color="#101736" />
    </radialGradient>
  </defs>
  <circle cx="50" cy="50" r="50" fill="url(#bg)" />
  <circle cx="20" cy="22" r="1.6" fill="#fff" opacity=".8" />
  <circle cx="82" cy="30" r="1.3" fill="#fff" opacity=".6" />
  <circle cx="14" cy="60" r="1.2" fill="#fff" opacity=".5" />
  <ellipse cx="22" cy="50" rx="14" ry="18" fill="#9aa3c4" />
  <ellipse cx="78" cy="50" rx="14" ry="18" fill="#9aa3c4" />
  <ellipse cx="50" cy="54" rx="28" ry="26" fill="#b3bcdd" />
  <path d="M28 40 Q34 18 58 16 Q74 15 72 26 L70 30 Q66 22 56 23 Q38 25 33 43 Z" fill="#e8a83a" />
  <circle cx="73" cy="27" r="4.5" fill="#ffd98a" />
  <path d="M50 66 Q42 82 50 90 Q58 96 60 86" stroke="#b3bcdd" stroke-width="10" fill="none" stroke-linecap="round" />
  <path d="M35 52 q5 5 10 0" stroke="#1d2142" stroke-width="2.4" fill="none" stroke-linecap="round" />
  <path d="M55 52 q5 5 10 0" stroke="#1d2142" stroke-width="2.4" fill="none" stroke-linecap="round" />
</svg>
